<?xml version="1.0" encoding="UTF-8"?>
<svg xmlns="http://www.w3.org/2000/svg" xmlns:xlink="http://www.w3.org/1999/xlink" width="48px" height="48px" viewBox="0 0 48 48" version="1.1">
<g id="surface1">
<path style=" stroke:none;fill-rule:evenodd;fill:rgb(100%,0%,0%);fill-opacity:1;" d="M 48 7.199219 L 48 40.800781 C 48 44.773438 44.773438 48 40.800781 48 L 7.199219 48 C 3.226562 48 0 44.773438 0 40.800781 L 0 7.199219 C 0 3.226562 3.226562 0 7.199219 0 L 40.800781 0 C 44.773438 0 48 3.226562 48 7.199219 Z M 48 7.199219 "/>
<path style=" stroke:none;fill-rule:evenodd;fill:rgb(100%,100%,100%);fill-opacity:1;" d="M 40.800781 11.230469 L 40.800781 36.769531 C 40.800781 38.992188 38.992188 40.800781 36.769531 40.800781 L 11.230469 40.800781 C 9.007812 40.800781 7.199219 38.992188 7.199219 36.769531 L 7.199219 11.230469 C 7.199219 9.007812 9.007812 7.199219 11.230469 7.199219 L 36.769531 7.199219 C 38.992188 7.199219 40.800781 9.007812 40.800781 11.230469 Z M 40.800781 11.230469 "/>
<path style=" stroke:none;fill-rule:nonzero;fill:rgb(100%,0%,0%);fill-opacity:0.5;" d="M 31.289062 27.703125 L 31.289062 15.945312 L 34.648438 15.945312 L 26.25 9.226562 L 17.851562 15.945312 L 21.210938 15.945312 L 21.210938 27.703125 Z M 31.289062 27.703125 "/>
<path style=" stroke:none;fill-rule:nonzero;fill:rgb(100%,0%,0%);fill-opacity:1;" d="M 16.335938 20.101562 L 16.335938 31.859375 L 12.976562 31.859375 L 21.375 38.578125 L 29.773438 31.859375 L 26.414062 31.859375 L 26.414062 20.101562 Z M 16.335938 20.101562 "/>
</g>
</svg>
