<?xml version="1.0" encoding="UTF-8"?>
<svg xmlns="http://www.w3.org/2000/svg" xmlns:xlink="http://www.w3.org/1999/xlink" width="16px" height="16px" viewBox="0 0 16 16" version="1.1">
<g id="surface1">
<path style=" stroke:none;fill-rule:evenodd;fill:rgb(100%,0%,0%);fill-opacity:1;" d="M 16 2.398438 L 16 13.601562 C 16 14.925781 14.925781 16 13.601562 16 L 2.398438 16 C 1.074219 16 0 14.925781 0 13.601562 L 0 2.398438 C 0 1.074219 1.074219 0 2.398438 0 L 13.601562 0 C 14.925781 0 16 1.074219 16 2.398438 Z M 16 2.398438 "/>
<path style=" stroke:none;fill-rule:evenodd;fill:rgb(100%,100%,100%);fill-opacity:1;" d="M 13.601562 3.742188 L 13.601562 12.257812 C 13.601562 12.996094 12.996094 13.601562 12.257812 13.601562 L 3.742188 13.601562 C 3.003906 13.601562 2.398438 12.996094 2.398438 12.257812 L 2.398438 3.742188 C 2.398438 3.003906 3.003906 2.398438 3.742188 2.398438 L 12.257812 2.398438 C 12.996094 2.398438 13.601562 3.003906 13.601562 3.742188 Z M 13.601562 3.742188 "/>
<path style=" stroke:none;fill-rule:nonzero;fill:rgb(100%,0%,0%);fill-opacity:0.501961;" d="M 10.429688 9.234375 L 10.429688 5.316406 L 11.550781 5.316406 L 8.75 3.074219 L 5.949219 5.316406 L 7.070312 5.316406 L 7.070312 9.234375 Z M 10.429688 9.234375 "/>
<path style=" stroke:none;fill-rule:nonzero;fill:rgb(100%,0%,0%);fill-opacity:1;" d="M 5.445312 6.699219 L 5.445312 10.621094 L 4.324219 10.621094 L 7.125 12.859375 L 9.925781 10.621094 L 8.804688 10.621094 L 8.804688 6.699219 Z M 5.445312 6.699219 "/>
</g>
</svg>
