<?xml version="1.0" encoding="UTF-8" standalone="no"?>
<!DOCTYPE svg PUBLIC "-//W3C//DTD SVG 1.1//EN" "http://www.w3.org/Graphics/SVG/1.1/DTD/svg11.dtd">
<svg width="100%" height="100%" viewBox="0 0 128 128" version="1.1" xmlns="http://www.w3.org/2000/svg" xmlns:xlink="http://www.w3.org/1999/xlink" xml:space="preserve" xmlns:serif="http://www.serif.com/" style="fill-rule:evenodd;clip-rule:evenodd;stroke-linejoin:round;stroke-miterlimit:2;">
    <path d="M128,19.2L128,108.8C128,119.397 119.397,128 108.8,128L19.2,128C8.603,128 0,119.397 0,108.8L0,19.2C0,8.603 8.603,0 19.2,0L108.8,0C119.397,0 128,8.603 128,19.2Z" style="fill:rgb(255,0,0);"/>
    <path d="M108.8,29.952L108.8,98.048C108.8,103.982 103.982,108.8 98.048,108.8L29.952,108.8C24.018,108.8 19.2,103.982 19.2,98.048L19.2,29.952C19.2,24.018 24.018,19.2 29.952,19.2L98.048,19.2C103.982,19.2 108.8,24.018 108.8,29.952Z" style="fill:white;"/>
    <g transform="matrix(1,0,0,1,64,64)">
        <g transform="matrix(-1,-0,0,-1,6,-12.52)">
            <path d="M-13.44,-22.4L-13.44,8.96L-22.4,8.96L0,26.88L22.4,8.96L13.44,8.96L13.44,-22.4L-13.44,-22.4Z" style="fill:rgb(255,0,0);fill-opacity:0.5;fill-rule:nonzero;"/>
        </g>
        <g transform="matrix(1,0,0,1,-7,12)">
            <path d="M-13.44,-22.4L-13.44,8.96L-22.4,8.96L0,26.88L22.4,8.96L13.44,8.96L13.44,-22.4L-13.44,-22.4Z" style="fill:rgb(255,0,0);fill-rule:nonzero;"/>
        </g>
    </g>
</svg>
